<svg width="207" height="53" viewBox="0 0 207 53" fill="none" xmlns="http://www.w3.org/2000/svg">
<circle cx="77" cy="13" r="13" fill="#242424"/>
<path d="M1.76136 31V7.72727H11.375C13.1174 7.72727 14.6212 8.06818 15.8864 8.75C17.1591 9.42424 18.1402 10.3674 18.8295 11.5795C19.5189 12.7841 19.8636 14.1856 19.8636 15.7841C19.8636 17.3902 19.5114 18.7955 18.8068 20C18.1098 21.197 17.1136 22.125 15.8182 22.7841C14.5227 23.4432 12.9848 23.7727 11.2045 23.7727H5.27273V19.3409H10.1591C11.0076 19.3409 11.7159 19.1932 12.2841 18.8977C12.8598 18.6023 13.2955 18.1894 13.5909 17.6591C13.8864 17.1212 14.0341 16.4962 14.0341 15.7841C14.0341 15.0644 13.8864 14.4432 13.5909 13.9205C13.2955 13.3902 12.8598 12.9811 12.2841 12.6932C11.7083 12.4053 11 12.2614 10.1591 12.2614H7.38636V31H1.76136ZM26.9318 31.2955C25.8182 31.2955 24.8295 31.1098 23.9659 30.7386C23.1098 30.3598 22.4318 29.7917 21.9318 29.0341C21.4394 28.2689 21.1932 27.3106 21.1932 26.1591C21.1932 25.1894 21.3636 24.3712 21.7045 23.7045C22.0455 23.0379 22.5152 22.4962 23.1136 22.0795C23.7121 21.6629 24.4015 21.3485 25.1818 21.1364C25.9621 20.9167 26.7955 20.7689 27.6818 20.6932C28.6742 20.6023 29.4735 20.5076 30.0795 20.4091C30.6856 20.303 31.125 20.1553 31.3977 19.9659C31.678 19.7689 31.8182 19.4924 31.8182 19.1364V19.0795C31.8182 18.4962 31.6174 18.0455 31.2159 17.7273C30.8144 17.4091 30.2727 17.25 29.5909 17.25C28.8561 17.25 28.2652 17.4091 27.8182 17.7273C27.3712 18.0455 27.0871 18.4848 26.9659 19.0455L21.8409 18.8636C21.9924 17.803 22.3826 16.8561 23.0114 16.0227C23.6477 15.1818 24.5189 14.5227 25.625 14.0455C26.7386 13.5606 28.0758 13.3182 29.6364 13.3182C30.75 13.3182 31.7765 13.4508 32.7159 13.7159C33.6553 13.9735 34.4735 14.3523 35.1705 14.8523C35.8674 15.3447 36.4053 15.9508 36.7841 16.6705C37.1705 17.3902 37.3636 18.2121 37.3636 19.1364V31H32.1364V28.5682H32C31.6894 29.1591 31.2917 29.6591 30.8068 30.0682C30.3295 30.4773 29.7652 30.7841 29.1136 30.9886C28.4697 31.1932 27.7424 31.2955 26.9318 31.2955ZM28.6477 27.6591C29.2462 27.6591 29.7841 27.5379 30.2614 27.2955C30.7462 27.053 31.1326 26.7197 31.4205 26.2955C31.7083 25.8636 31.8523 25.3636 31.8523 24.7955V23.1364C31.6932 23.2197 31.5 23.2955 31.2727 23.3636C31.053 23.4318 30.8106 23.4962 30.5455 23.5568C30.2803 23.6174 30.0076 23.6705 29.7273 23.7159C29.447 23.7614 29.178 23.803 28.9205 23.8409C28.3977 23.9242 27.9508 24.053 27.5795 24.2273C27.2159 24.4015 26.9356 24.6288 26.7386 24.9091C26.5492 25.1818 26.4545 25.5076 26.4545 25.8864C26.4545 26.4621 26.6591 26.9015 27.0682 27.2045C27.4848 27.5076 28.0114 27.6591 28.6477 27.6591ZM46.3182 21.0455V31H40.7614V13.5455H46.0455V16.75H46.2386C46.625 15.6818 47.2841 14.8447 48.2159 14.2386C49.1477 13.625 50.2576 13.3182 51.5455 13.3182C52.7727 13.3182 53.8371 13.5947 54.7386 14.1477C55.6477 14.6932 56.3523 15.4583 56.8523 16.4432C57.3598 17.4205 57.6098 18.5644 57.6023 19.875V31H52.0455V20.9659C52.053 19.9962 51.8068 19.2386 51.3068 18.6932C50.8144 18.1477 50.1288 17.875 49.25 17.875C48.6667 17.875 48.1515 18.0038 47.7045 18.2614C47.2652 18.5114 46.9242 18.8712 46.6818 19.3409C46.447 19.8106 46.3258 20.3788 46.3182 21.0455ZM67.4176 31.25C66.1297 31.25 64.9593 30.9167 63.9062 30.25C62.8532 29.5833 62.0123 28.5833 61.3835 27.25C60.7547 25.9167 60.4403 24.2614 60.4403 22.2841C60.4403 20.2311 60.7661 18.5417 61.4176 17.2159C62.0691 15.8902 62.9214 14.9091 63.9744 14.2727C65.035 13.6364 66.1752 13.3182 67.3949 13.3182C68.3116 13.3182 69.0956 13.4773 69.7472 13.7955C70.3987 14.1061 70.9366 14.5076 71.3608 15C71.785 15.4924 72.107 16.0038 72.3267 16.5341H72.4403V7.72727H77.9972V31H72.4972V28.1705H72.3267C72.0919 28.7083 71.7585 29.2121 71.3267 29.6818C70.8949 30.1515 70.3532 30.5303 69.7017 30.8182C69.0578 31.1061 68.2964 31.25 67.4176 31.25ZM69.3494 26.9205C70.0237 26.9205 70.5994 26.7311 71.0767 26.3523C71.554 25.9659 71.9214 25.4242 72.179 24.7273C72.4366 24.0303 72.5653 23.2121 72.5653 22.2727C72.5653 21.3182 72.4366 20.4962 72.179 19.8068C71.929 19.1174 71.5616 18.5871 71.0767 18.2159C70.5994 17.8447 70.0237 17.6591 69.3494 17.6591C68.66 17.6591 68.0767 17.8485 67.5994 18.2273C67.1222 18.6061 66.7585 19.1402 66.5085 19.8295C66.2661 20.5189 66.1449 21.3333 66.1449 22.2727C66.1449 23.2121 66.2699 24.0303 66.5199 24.7273C66.7699 25.4242 67.1297 25.9659 67.5994 26.3523C68.0767 26.7311 68.66 26.9205 69.3494 26.9205ZM86.4318 31.2955C85.3182 31.2955 84.3295 31.1098 83.4659 30.7386C82.6098 30.3598 81.9318 29.7917 81.4318 29.0341C80.9394 28.2689 80.6932 27.3106 80.6932 26.1591C80.6932 25.1894 80.8636 24.3712 81.2045 23.7045C81.5455 23.0379 82.0152 22.4962 82.6136 22.0795C83.2121 21.6629 83.9015 21.3485 84.6818 21.1364C85.4621 20.9167 86.2955 20.7689 87.1818 20.6932C88.1742 20.6023 88.9735 20.5076 89.5795 20.4091C90.1856 20.303 90.625 20.1553 90.8977 19.9659C91.178 19.7689 91.3182 19.4924 91.3182 19.1364V19.0795C91.3182 18.4962 91.1174 18.0455 90.7159 17.7273C90.3144 17.4091 89.7727 17.25 89.0909 17.25C88.3561 17.25 87.7652 17.4091 87.3182 17.7273C86.8712 18.0455 86.5871 18.4848 86.4659 19.0455L81.3409 18.8636C81.4924 17.803 81.8826 16.8561 82.5114 16.0227C83.1477 15.1818 84.0189 14.5227 85.125 14.0455C86.2386 13.5606 87.5758 13.3182 89.1364 13.3182C90.25 13.3182 91.2765 13.4508 92.2159 13.7159C93.1553 13.9735 93.9735 14.3523 94.6705 14.8523C95.3674 15.3447 95.9053 15.9508 96.2841 16.6705C96.6705 17.3902 96.8636 18.2121 96.8636 19.1364V31H91.6364V28.5682H91.5C91.1894 29.1591 90.7917 29.6591 90.3068 30.0682C89.8295 30.4773 89.2652 30.7841 88.6136 30.9886C87.9697 31.1932 87.2424 31.2955 86.4318 31.2955ZM88.1477 27.6591C88.7462 27.6591 89.2841 27.5379 89.7614 27.2955C90.2462 27.053 90.6326 26.7197 90.9205 26.2955C91.2083 25.8636 91.3523 25.3636 91.3523 24.7955V23.1364C91.1932 23.2197 91 23.2955 90.7727 23.3636C90.553 23.4318 90.3106 23.4962 90.0455 23.5568C89.7803 23.6174 89.5076 23.6705 89.2273 23.7159C88.947 23.7614 88.678 23.803 88.4205 23.8409C87.8977 23.9242 87.4508 24.053 87.0795 24.2273C86.7159 24.4015 86.4356 24.6288 86.2386 24.9091C86.0492 25.1818 85.9545 25.5076 85.9545 25.8864C85.9545 26.4621 86.1591 26.9015 86.5682 27.2045C86.9848 27.5076 87.5114 27.6591 88.1477 27.6591ZM103.523 31L98.9773 13.5455H104.557L106.909 24.7273H107.057L109.58 13.5455H115.023L117.614 24.6477H117.761L120.045 13.5455H125.625L121.068 31H115.125L112.398 20.8295H112.205L109.477 31H103.523ZM132.776 31.2955C131.662 31.2955 130.673 31.1098 129.81 30.7386C128.954 30.3598 128.276 29.7917 127.776 29.0341C127.283 28.2689 127.037 27.3106 127.037 26.1591C127.037 25.1894 127.207 24.3712 127.548 23.7045C127.889 23.0379 128.359 22.4962 128.957 22.0795C129.556 21.6629 130.245 21.3485 131.026 21.1364C131.806 20.9167 132.639 20.7689 133.526 20.6932C134.518 20.6023 135.317 20.5076 135.923 20.4091C136.529 20.303 136.969 20.1553 137.241 19.9659C137.522 19.7689 137.662 19.4924 137.662 19.1364V19.0795C137.662 18.4962 137.461 18.0455 137.06 17.7273C136.658 17.4091 136.116 17.25 135.435 17.25C134.7 17.25 134.109 17.4091 133.662 17.7273C133.215 18.0455 132.931 18.4848 132.81 19.0455L127.685 18.8636C127.836 17.803 128.226 16.8561 128.855 16.0227C129.491 15.1818 130.363 14.5227 131.469 14.0455C132.582 13.5606 133.92 13.3182 135.48 13.3182C136.594 13.3182 137.62 13.4508 138.56 13.7159C139.499 13.9735 140.317 14.3523 141.014 14.8523C141.711 15.3447 142.249 15.9508 142.628 16.6705C143.014 17.3902 143.207 18.2121 143.207 19.1364V31H137.98V28.5682H137.844C137.533 29.1591 137.135 29.6591 136.651 30.0682C136.173 30.4773 135.609 30.7841 134.957 30.9886C134.313 31.1932 133.586 31.2955 132.776 31.2955ZM134.491 27.6591C135.09 27.6591 135.628 27.5379 136.105 27.2955C136.59 27.053 136.976 26.7197 137.264 26.2955C137.552 25.8636 137.696 25.3636 137.696 24.7955V23.1364C137.537 23.2197 137.344 23.2955 137.116 23.3636C136.897 23.4318 136.654 23.4962 136.389 23.5568C136.124 23.6174 135.851 23.6705 135.571 23.7159C135.291 23.7614 135.022 23.803 134.764 23.8409C134.241 23.9242 133.795 24.053 133.423 24.2273C133.06 24.4015 132.779 24.6288 132.582 24.9091C132.393 25.1818 132.298 25.5076 132.298 25.8864C132.298 26.4621 132.503 26.9015 132.912 27.2045C133.329 27.5076 133.855 27.6591 134.491 27.6591Z" fill="white"/>
<path d="M144.375 12.2955V7.72727H164.045V12.2955H156.989V31H151.443V12.2955H144.375ZM164.98 31V13.5455H170.378V16.7273H170.56C170.878 15.5758 171.397 14.7197 172.116 14.1591C172.836 13.5909 173.673 13.3068 174.628 13.3068C174.885 13.3068 175.151 13.3258 175.423 13.3636C175.696 13.3939 175.95 13.4432 176.185 13.5114V18.3409C175.92 18.25 175.571 18.178 175.139 18.125C174.715 18.072 174.336 18.0455 174.003 18.0455C173.344 18.0455 172.749 18.1932 172.219 18.4886C171.696 18.7765 171.283 19.1818 170.98 19.7045C170.685 20.2197 170.537 20.8258 170.537 21.5227V31H164.98ZM178.449 31V13.5455H184.006V31H178.449ZM181.233 11.5114C180.453 11.5114 179.782 11.2538 179.222 10.7386C178.661 10.2159 178.381 9.58712 178.381 8.85227C178.381 8.125 178.661 7.50379 179.222 6.98864C179.782 6.46591 180.453 6.20454 181.233 6.20454C182.021 6.20454 182.691 6.46591 183.244 6.98864C183.805 7.50379 184.085 8.125 184.085 8.85227C184.085 9.58712 183.805 10.2159 183.244 10.7386C182.691 11.2538 182.021 11.5114 181.233 11.5114ZM187.543 37.5455V13.5455H193.043V16.5341H193.213C193.44 16.0038 193.762 15.4924 194.179 15C194.603 14.5076 195.141 14.1061 195.793 13.7955C196.452 13.4773 197.24 13.3182 198.156 13.3182C199.368 13.3182 200.501 13.6364 201.554 14.2727C202.615 14.9091 203.471 15.8902 204.122 17.2159C204.774 18.5417 205.099 20.2311 205.099 22.2841C205.099 24.2614 204.785 25.9167 204.156 27.25C203.535 28.5833 202.694 29.5833 201.634 30.25C200.58 30.9167 199.41 31.25 198.122 31.25C197.243 31.25 196.482 31.1061 195.838 30.8182C195.194 30.5303 194.652 30.1515 194.213 29.6818C193.781 29.2121 193.448 28.7083 193.213 28.1705H193.099V37.5455H187.543ZM192.986 22.2727C192.986 23.2121 193.111 24.0303 193.361 24.7273C193.618 25.4242 193.986 25.9659 194.463 26.3523C194.948 26.7311 195.527 26.9205 196.202 26.9205C196.884 26.9205 197.463 26.7311 197.94 26.3523C198.418 25.9659 198.777 25.4242 199.02 24.7273C199.27 24.0303 199.395 23.2121 199.395 22.2727C199.395 21.3333 199.27 20.5189 199.02 19.8295C198.777 19.1402 198.418 18.6061 197.94 18.2273C197.471 17.8485 196.891 17.6591 196.202 17.6591C195.52 17.6591 194.94 17.8447 194.463 18.2159C193.986 18.5871 193.618 19.1174 193.361 19.8068C193.111 20.4962 192.986 21.3182 192.986 22.2727Z" fill="#242424"/>
<path d="M22.8789 50V42H25.8086C26.3763 42 26.8464 42.0937 27.2188 42.2812C27.5911 42.4661 27.8698 42.7174 28.0547 43.0352C28.2396 43.3503 28.332 43.7057 28.332 44.1016C28.332 44.4349 28.2708 44.7161 28.1484 44.9453C28.026 45.1719 27.862 45.3542 27.6563 45.4922C27.4531 45.6276 27.2292 45.7266 26.9844 45.7891V45.8672C27.25 45.8802 27.5091 45.9661 27.7617 46.125C28.0169 46.2812 28.2279 46.5039 28.3945 46.793C28.5612 47.082 28.6445 47.4336 28.6445 47.8477C28.6445 48.2565 28.5482 48.6237 28.3555 48.9492C28.1654 49.2721 27.8711 49.5286 27.4727 49.7187C27.0742 49.9062 26.5651 50 25.9453 50H22.8789ZM24.0859 48.9648H25.8281C26.4063 48.9648 26.8203 48.8529 27.0703 48.6289C27.3203 48.4049 27.4453 48.125 27.4453 47.7891C27.4453 47.5365 27.3815 47.3047 27.2539 47.0937C27.1263 46.8828 26.944 46.7148 26.707 46.5898C26.4727 46.4648 26.194 46.4023 25.8711 46.4023H24.0859V48.9648ZM24.0859 45.4609H25.7031C25.974 45.4609 26.2174 45.4089 26.4336 45.3047C26.6523 45.2005 26.8255 45.0547 26.9531 44.8672C27.0833 44.6771 27.1484 44.4531 27.1484 44.1953C27.1484 43.8646 27.0326 43.5872 26.8008 43.3633C26.569 43.1393 26.2135 43.0273 25.7344 43.0273H24.0859V45.4609ZM31.7285 50.1328C31.3483 50.1328 31.0046 50.0625 30.6973 49.9219C30.39 49.7786 30.1465 49.5716 29.9668 49.3008C29.7897 49.0299 29.7012 48.6979 29.7012 48.3047C29.7012 47.9661 29.7663 47.6875 29.8965 47.4687C30.0267 47.25 30.2025 47.0768 30.4238 46.9492C30.6452 46.8216 30.8926 46.7253 31.166 46.6602C31.4395 46.5951 31.7181 46.5456 32.002 46.5117C32.3613 46.4701 32.653 46.4362 32.877 46.4102C33.1009 46.3815 33.2637 46.3359 33.3652 46.2734C33.4668 46.2109 33.5176 46.1094 33.5176 45.9687V45.9414C33.5176 45.6003 33.4212 45.3359 33.2285 45.1484C33.0384 44.9609 32.7546 44.8672 32.377 44.8672C31.9837 44.8672 31.6738 44.9544 31.4473 45.1289C31.2233 45.3008 31.0684 45.4922 30.9824 45.7031L29.8848 45.4531C30.015 45.0885 30.2051 44.7943 30.4551 44.5703C30.7077 44.3437 30.998 44.1797 31.3262 44.0781C31.6543 43.974 31.9993 43.9219 32.3613 43.9219C32.6009 43.9219 32.8548 43.9505 33.123 44.0078C33.3939 44.0625 33.6465 44.1641 33.8809 44.3125C34.1178 44.4609 34.3118 44.6732 34.4629 44.9492C34.6139 45.2227 34.6895 45.5781 34.6895 46.0156V50H33.5488V49.1797H33.502C33.4264 49.3307 33.3132 49.4792 33.1621 49.625C33.0111 49.7708 32.8171 49.8919 32.5801 49.9883C32.3431 50.0846 32.0592 50.1328 31.7285 50.1328ZM31.9824 49.1953C32.3053 49.1953 32.5814 49.1315 32.8105 49.0039C33.0423 48.8763 33.2181 48.7096 33.3379 48.5039C33.4603 48.2956 33.5215 48.0729 33.5215 47.8359V47.0625C33.4798 47.1042 33.3991 47.1432 33.2793 47.1797C33.1621 47.2135 33.028 47.2435 32.877 47.2695C32.7259 47.293 32.5788 47.3151 32.4355 47.3359C32.2923 47.3542 32.1725 47.3698 32.0762 47.3828C31.8496 47.4115 31.6426 47.4596 31.4551 47.5273C31.2702 47.5951 31.1217 47.6927 31.0098 47.8203C30.9004 47.9453 30.8457 48.112 30.8457 48.3203C30.8457 48.6094 30.9525 48.8281 31.166 48.9766C31.3796 49.1224 31.6517 49.1953 31.9824 49.1953ZM37.4131 42V50H36.2451V42H37.4131ZM38.9844 50V44H40.1523V50H38.9844ZM39.5742 43.0742C39.3711 43.0742 39.1966 43.0065 39.0508 42.8711C38.9076 42.7331 38.8359 42.569 38.8359 42.3789C38.8359 42.1862 38.9076 42.0221 39.0508 41.8867C39.1966 41.7487 39.3711 41.6797 39.5742 41.6797C39.7773 41.6797 39.9505 41.7487 40.0938 41.8867C40.2396 42.0221 40.3125 42.1862 40.3125 42.3789C40.3125 42.569 40.2396 42.7331 40.0938 42.8711C39.9505 43.0065 39.7773 43.0742 39.5742 43.0742ZM49.0918 44.1016C49.0501 43.7318 48.8783 43.4453 48.5762 43.2422C48.2741 43.0365 47.8939 42.9336 47.4355 42.9336C47.1074 42.9336 46.8236 42.9857 46.584 43.0898C46.3444 43.1914 46.1582 43.332 46.0254 43.5117C45.8952 43.6888 45.8301 43.8906 45.8301 44.1172C45.8301 44.3073 45.8743 44.4714 45.9629 44.6094C46.054 44.7474 46.1725 44.8633 46.3184 44.957C46.4668 45.0482 46.6257 45.125 46.7949 45.1875C46.9642 45.2474 47.127 45.2969 47.2832 45.3359L48.0645 45.5391C48.3197 45.6016 48.5814 45.6862 48.8496 45.793C49.1178 45.8997 49.3665 46.0404 49.5957 46.2148C49.8249 46.3893 50.0098 46.6055 50.1504 46.8633C50.2936 47.1211 50.3652 47.4297 50.3652 47.7891C50.3652 48.2422 50.248 48.6445 50.0137 48.9961C49.7819 49.3477 49.4447 49.625 49.002 49.8281C48.5618 50.0313 48.0293 50.1328 47.4043 50.1328C46.8053 50.1328 46.2871 50.0378 45.8496 49.8477C45.4121 49.6576 45.0697 49.388 44.8223 49.0391C44.5749 48.6875 44.4382 48.2708 44.4121 47.7891H45.623C45.6465 48.0781 45.7402 48.319 45.9043 48.5117C46.071 48.7018 46.2832 48.8437 46.541 48.9375C46.8014 49.0286 47.0866 49.0742 47.3965 49.0742C47.7376 49.0742 48.041 49.0208 48.3066 48.9141C48.5749 48.8047 48.7858 48.6536 48.9395 48.4609C49.0931 48.2656 49.1699 48.0378 49.1699 47.7773C49.1699 47.5404 49.1022 47.3464 48.9668 47.1953C48.834 47.0443 48.653 46.9193 48.4238 46.8203C48.1973 46.7214 47.9408 46.6341 47.6543 46.5586L46.709 46.3008C46.0684 46.1263 45.5605 45.8698 45.1855 45.5312C44.8132 45.1927 44.627 44.7448 44.627 44.1875C44.627 43.7266 44.752 43.3242 45.002 42.9805C45.252 42.6367 45.5905 42.3698 46.0176 42.1797C46.4447 41.987 46.9264 41.8906 47.4629 41.8906C48.0046 41.8906 48.4824 41.9857 48.8965 42.1758C49.3132 42.3659 49.6413 42.6276 49.8809 42.9609C50.1204 43.2917 50.2454 43.6719 50.2559 44.1016H49.0918ZM54.2998 50.1211C53.7087 50.1211 53.1995 49.9948 52.7725 49.7422C52.348 49.487 52.0199 49.1289 51.7881 48.668C51.5589 48.2044 51.4443 47.6615 51.4443 47.0391C51.4443 46.4245 51.5589 45.8828 51.7881 45.4141C52.0199 44.9453 52.3428 44.5794 52.7568 44.3164C53.1735 44.0534 53.6605 43.9219 54.2178 43.9219C54.5563 43.9219 54.8844 43.9779 55.2021 44.0898C55.5199 44.2018 55.805 44.3776 56.0576 44.6172C56.3102 44.8568 56.5094 45.168 56.6553 45.5508C56.8011 45.931 56.874 46.3932 56.874 46.9375V47.3516H52.1045V46.4766H55.7295C55.7295 46.1693 55.667 45.8971 55.542 45.6602C55.417 45.4206 55.2412 45.2318 55.0146 45.0937C54.7907 44.9557 54.5277 44.8867 54.2256 44.8867C53.8975 44.8867 53.611 44.9674 53.3662 45.1289C53.124 45.2878 52.9365 45.4961 52.8037 45.7539C52.6735 46.0091 52.6084 46.2865 52.6084 46.5859V47.2695C52.6084 47.6706 52.6787 48.0117 52.8193 48.293C52.9626 48.5742 53.1618 48.7891 53.417 48.9375C53.6722 49.0833 53.9704 49.1562 54.3115 49.1562C54.5329 49.1562 54.7347 49.125 54.917 49.0625C55.0993 48.9974 55.2568 48.901 55.3896 48.7734C55.5225 48.6458 55.624 48.4883 55.6943 48.3008L56.7998 48.5C56.7113 48.8255 56.5524 49.1107 56.3232 49.3555C56.0967 49.5977 55.8115 49.7865 55.4678 49.9219C55.1266 50.0547 54.7373 50.1211 54.2998 50.1211ZM59.3379 42V50H58.1699V42H59.3379ZM62.6553 50.1328C62.2751 50.1328 61.9313 50.0625 61.624 49.9219C61.3167 49.7786 61.0732 49.5716 60.8936 49.3008C60.7165 49.0299 60.6279 48.6979 60.6279 48.3047C60.6279 47.9661 60.693 47.6875 60.8232 47.4687C60.9535 47.25 61.1292 47.0768 61.3506 46.9492C61.5719 46.8216 61.8193 46.7253 62.0928 46.6602C62.3662 46.5951 62.6449 46.5456 62.9287 46.5117C63.2881 46.4701 63.5798 46.4362 63.8037 46.4102C64.0277 46.3815 64.1904 46.3359 64.292 46.2734C64.3936 46.2109 64.4443 46.1094 64.4443 45.9687V45.9414C64.4443 45.6003 64.348 45.3359 64.1553 45.1484C63.9652 44.9609 63.6813 44.8672 63.3037 44.8672C62.9105 44.8672 62.6006 44.9544 62.374 45.1289C62.1501 45.3008 61.9951 45.4922 61.9092 45.7031L60.8115 45.4531C60.9417 45.0885 61.1318 44.7943 61.3818 44.5703C61.6344 44.3437 61.9248 44.1797 62.2529 44.0781C62.5811 43.974 62.9261 43.9219 63.2881 43.9219C63.5277 43.9219 63.7816 43.9505 64.0498 44.0078C64.3206 44.0625 64.5732 44.1641 64.8076 44.3125C65.0446 44.4609 65.2386 44.6732 65.3896 44.9492C65.5407 45.2227 65.6162 45.5781 65.6162 46.0156V50H64.4756V49.1797H64.4287C64.3532 49.3307 64.2399 49.4792 64.0889 49.625C63.9378 49.7708 63.7438 49.8919 63.5068 49.9883C63.2699 50.0846 62.986 50.1328 62.6553 50.1328ZM62.9092 49.1953C63.2321 49.1953 63.5081 49.1315 63.7373 49.0039C63.9691 48.8763 64.1449 48.7096 64.2646 48.5039C64.387 48.2956 64.4482 48.0729 64.4482 47.8359V47.0625C64.4066 47.1042 64.3258 47.1432 64.2061 47.1797C64.0889 47.2135 63.9548 47.2435 63.8037 47.2695C63.6527 47.293 63.5055 47.3151 63.3623 47.3359C63.2191 47.3542 63.0993 47.3698 63.0029 47.3828C62.7764 47.4115 62.5693 47.4596 62.3818 47.5273C62.1969 47.5951 62.0485 47.6927 61.9365 47.8203C61.8271 47.9453 61.7725 48.112 61.7725 48.3203C61.7725 48.6094 61.8792 48.8281 62.0928 48.9766C62.3063 49.1224 62.5785 49.1953 62.9092 49.1953ZM68.3398 42V50H67.1719V42H68.3398ZM73.7119 47.5117V44H74.8838V50H73.7354V48.9609H73.6729C73.5348 49.2813 73.3135 49.5482 73.0088 49.7617C72.7067 49.9727 72.3304 50.0781 71.8799 50.0781C71.4945 50.0781 71.1533 49.9935 70.8564 49.8242C70.5622 49.6523 70.3304 49.3984 70.1611 49.0625C69.9945 48.7266 69.9111 48.3112 69.9111 47.8164V44H71.0791V47.6758C71.0791 48.0846 71.1924 48.4102 71.4189 48.6523C71.6455 48.8945 71.9398 49.0156 72.3018 49.0156C72.5205 49.0156 72.738 48.9609 72.9541 48.8516C73.1729 48.7422 73.3538 48.5768 73.4971 48.3555C73.6429 48.1341 73.7145 47.8529 73.7119 47.5117ZM82.5674 42H83.7705V47.6719C83.7705 48.1849 83.6689 48.6237 83.4658 48.9883C83.2653 49.3529 82.9827 49.6315 82.6182 49.8242C82.2536 50.0143 81.8265 50.1094 81.3369 50.1094C80.8864 50.1094 80.4814 50.0273 80.1221 49.8633C79.7653 49.6992 79.4827 49.4609 79.2744 49.1484C79.0687 48.8333 78.9658 48.4505 78.9658 48H80.165C80.165 48.2214 80.2158 48.4128 80.3174 48.5742C80.4215 48.7357 80.5635 48.862 80.7432 48.9531C80.9255 49.0417 81.1338 49.0859 81.3682 49.0859C81.6234 49.0859 81.8395 49.0326 82.0166 48.9258C82.1963 48.8164 82.333 48.6562 82.4268 48.4453C82.5205 48.2344 82.5674 47.9766 82.5674 47.6719V42ZM87.1797 50.1328C86.7995 50.1328 86.4557 50.0625 86.1484 49.9219C85.8411 49.7786 85.5977 49.5716 85.418 49.3008C85.2409 49.0299 85.1523 48.6979 85.1523 48.3047C85.1523 47.9661 85.2174 47.6875 85.3477 47.4687C85.4779 47.25 85.6536 47.0768 85.875 46.9492C86.0964 46.8216 86.3438 46.7253 86.6172 46.6602C86.8906 46.5951 87.1693 46.5456 87.4531 46.5117C87.8125 46.4701 88.1042 46.4362 88.3281 46.4102C88.5521 46.3815 88.7148 46.3359 88.8164 46.2734C88.918 46.2109 88.9688 46.1094 88.9688 45.9687V45.9414C88.9688 45.6003 88.8724 45.3359 88.6797 45.1484C88.4896 44.9609 88.2057 44.8672 87.8281 44.8672C87.4349 44.8672 87.125 44.9544 86.8984 45.1289C86.6745 45.3008 86.5195 45.4922 86.4336 45.7031L85.3359 45.4531C85.4661 45.0885 85.6563 44.7943 85.9063 44.5703C86.1589 44.3437 86.4492 44.1797 86.7773 44.0781C87.1055 43.974 87.4505 43.9219 87.8125 43.9219C88.0521 43.9219 88.306 43.9505 88.5742 44.0078C88.8451 44.0625 89.0977 44.1641 89.332 44.3125C89.569 44.4609 89.763 44.6732 89.9141 44.9492C90.0651 45.2227 90.1406 45.5781 90.1406 46.0156V50H89V49.1797H88.9531C88.8776 49.3307 88.7643 49.4792 88.6133 49.625C88.4622 49.7708 88.2682 49.8919 88.0312 49.9883C87.7943 50.0846 87.5104 50.1328 87.1797 50.1328ZM87.4336 49.1953C87.7565 49.1953 88.0326 49.1315 88.2617 49.0039C88.4935 48.8763 88.6693 48.7096 88.7891 48.5039C88.9115 48.2956 88.9727 48.0729 88.9727 47.8359V47.0625C88.931 47.1042 88.8503 47.1432 88.7305 47.1797C88.6133 47.2135 88.4792 47.2435 88.3281 47.2695C88.1771 47.293 88.0299 47.3151 87.8867 47.3359C87.7435 47.3542 87.6237 47.3698 87.5273 47.3828C87.3008 47.4115 87.0938 47.4596 86.9063 47.5273C86.7214 47.5951 86.5729 47.6927 86.4609 47.8203C86.3516 47.9453 86.2969 48.112 86.2969 48.3203C86.2969 48.6094 86.4036 48.8281 86.6172 48.9766C86.8307 49.1224 87.1029 49.1953 87.4336 49.1953ZM93.9424 50.1172C93.458 50.1172 93.0257 49.9935 92.6455 49.7461C92.2679 49.4961 91.971 49.1406 91.7549 48.6797C91.5413 48.2161 91.4346 47.6602 91.4346 47.0117C91.4346 46.3633 91.5426 45.8086 91.7588 45.3477C91.9775 44.8867 92.277 44.5339 92.6572 44.2891C93.0374 44.0443 93.4684 43.9219 93.9502 43.9219C94.3226 43.9219 94.6221 43.9844 94.8486 44.1094C95.0778 44.2318 95.2549 44.375 95.3799 44.5391C95.5075 44.7031 95.6064 44.8477 95.6768 44.9727H95.7471V42H96.915V50H95.7744V49.0664H95.6768C95.6064 49.194 95.5049 49.3398 95.3721 49.5039C95.2419 49.668 95.0622 49.8112 94.833 49.9336C94.6038 50.056 94.307 50.1172 93.9424 50.1172ZM94.2002 49.1211C94.5361 49.1211 94.82 49.0326 95.0518 48.8555C95.2861 48.6758 95.4632 48.4271 95.583 48.1094C95.7054 47.7917 95.7666 47.4219 95.7666 47C95.7666 46.5833 95.7067 46.2187 95.5869 45.9062C95.4671 45.5937 95.2913 45.3503 95.0596 45.1758C94.8278 45.0013 94.5413 44.9141 94.2002 44.9141C93.8486 44.9141 93.5557 45.0052 93.3213 45.1875C93.0869 45.3698 92.9098 45.6185 92.79 45.9336C92.6729 46.2487 92.6143 46.6042 92.6143 47C92.6143 47.401 92.6742 47.7617 92.7939 48.082C92.9137 48.4023 93.0908 48.6562 93.3252 48.8437C93.5622 49.0286 93.8538 49.1211 94.2002 49.1211ZM98.582 50V44H99.75V50H98.582ZM99.1719 43.0742C98.9688 43.0742 98.7943 43.0065 98.6484 42.8711C98.5052 42.7331 98.4336 42.569 98.4336 42.3789C98.4336 42.1862 98.5052 42.0221 98.6484 41.8867C98.7943 41.7487 98.9688 41.6797 99.1719 41.6797C99.375 41.6797 99.5482 41.7487 99.6914 41.8867C99.8372 42.0221 99.9102 42.1862 99.9102 42.3789C99.9102 42.569 99.8372 42.7331 99.6914 42.8711C99.5482 43.0065 99.375 43.0742 99.1719 43.0742ZM103.932 43.0391V42H110.123V43.0391H107.627V50H106.424V43.0391H103.932ZM113.113 50.1211C112.522 50.1211 112.013 49.9948 111.586 49.7422C111.161 49.487 110.833 49.1289 110.602 48.668C110.372 48.2044 110.258 47.6615 110.258 47.0391C110.258 46.4245 110.372 45.8828 110.602 45.4141C110.833 44.9453 111.156 44.5794 111.57 44.3164C111.987 44.0534 112.474 43.9219 113.031 43.9219C113.37 43.9219 113.698 43.9779 114.016 44.0898C114.333 44.2018 114.618 44.3776 114.871 44.6172C115.124 44.8568 115.323 45.168 115.469 45.5508C115.615 45.931 115.688 46.3932 115.688 46.9375V47.3516H110.918V46.4766H114.543C114.543 46.1693 114.48 45.8971 114.355 45.6602C114.23 45.4206 114.055 45.2318 113.828 45.0937C113.604 44.9557 113.341 44.8867 113.039 44.8867C112.711 44.8867 112.424 44.9674 112.18 45.1289C111.938 45.2878 111.75 45.4961 111.617 45.7539C111.487 46.0091 111.422 46.2865 111.422 46.5859V47.2695C111.422 47.6706 111.492 48.0117 111.633 48.293C111.776 48.5742 111.975 48.7891 112.23 48.9375C112.486 49.0833 112.784 49.1562 113.125 49.1562C113.346 49.1562 113.548 49.125 113.73 49.0625C113.913 48.9974 114.07 48.901 114.203 48.7734C114.336 48.6458 114.438 48.4883 114.508 48.3008L115.613 48.5C115.525 48.8255 115.366 49.1107 115.137 49.3555C114.91 49.5977 114.625 49.7865 114.281 49.9219C113.94 50.0547 113.551 50.1211 113.113 50.1211ZM116.983 50V44H118.104V44.9766H118.179C118.304 44.6458 118.508 44.388 118.792 44.2031C119.076 44.0156 119.416 43.9219 119.812 43.9219C120.213 43.9219 120.549 44.0156 120.819 44.2031C121.093 44.3906 121.295 44.6484 121.425 44.9766H121.487C121.631 44.6562 121.858 44.401 122.171 44.2109C122.483 44.0182 122.856 43.9219 123.288 43.9219C123.832 43.9219 124.276 44.0924 124.62 44.4336C124.966 44.7747 125.14 45.2891 125.14 45.9766V50H123.972V46.0859C123.972 45.6797 123.861 45.3854 123.64 45.2031C123.418 45.0208 123.154 44.9297 122.847 44.9297C122.466 44.9297 122.171 45.0469 121.96 45.2812C121.749 45.513 121.644 45.8112 121.644 46.1758V50H120.479V46.0117C120.479 45.6862 120.378 45.4245 120.175 45.2266C119.972 45.0286 119.707 44.9297 119.382 44.9297C119.16 44.9297 118.956 44.9883 118.769 45.1055C118.584 45.2201 118.434 45.3802 118.319 45.5859C118.207 45.7917 118.151 46.0299 118.151 46.3008V50H116.983ZM126.705 52.25V44H127.846V44.9727H127.943C128.011 44.8477 128.109 44.7031 128.236 44.5391C128.364 44.375 128.541 44.2318 128.768 44.1094C128.994 43.9844 129.294 43.9219 129.666 43.9219C130.15 43.9219 130.583 44.0443 130.963 44.2891C131.343 44.5339 131.641 44.8867 131.857 45.3477C132.076 45.8086 132.186 46.3633 132.186 47.0117C132.186 47.6602 132.077 48.2161 131.861 48.6797C131.645 49.1406 131.348 49.4961 130.971 49.7461C130.593 49.9935 130.162 50.1172 129.678 50.1172C129.313 50.1172 129.015 50.056 128.783 49.9336C128.554 49.8112 128.374 49.668 128.244 49.5039C128.114 49.3398 128.014 49.194 127.943 49.0664H127.873V52.25H126.705ZM127.85 47C127.85 47.4219 127.911 47.7917 128.033 48.1094C128.156 48.4271 128.333 48.6758 128.564 48.8555C128.796 49.0326 129.08 49.1211 129.416 49.1211C129.765 49.1211 130.057 49.0286 130.291 48.8437C130.525 48.6562 130.702 48.4023 130.822 48.082C130.945 47.7617 131.006 47.401 131.006 47C131.006 46.6042 130.946 46.2487 130.826 45.9336C130.709 45.6185 130.532 45.3698 130.295 45.1875C130.061 45.0052 129.768 44.9141 129.416 44.9141C129.077 44.9141 128.791 45.0013 128.557 45.1758C128.325 45.3503 128.149 45.5937 128.029 45.9062C127.91 46.2187 127.85 46.5833 127.85 47ZM135.24 50.1328C134.86 50.1328 134.516 50.0625 134.209 49.9219C133.902 49.7786 133.658 49.5716 133.479 49.3008C133.301 49.0299 133.213 48.6979 133.213 48.3047C133.213 47.9661 133.278 47.6875 133.408 47.4687C133.538 47.25 133.714 47.0768 133.936 46.9492C134.157 46.8216 134.404 46.7253 134.678 46.6602C134.951 46.5951 135.23 46.5456 135.514 46.5117C135.873 46.4701 136.165 46.4362 136.389 46.4102C136.613 46.3815 136.775 46.3359 136.877 46.2734C136.979 46.2109 137.029 46.1094 137.029 45.9687V45.9414C137.029 45.6003 136.933 45.3359 136.74 45.1484C136.55 44.9609 136.266 44.8672 135.889 44.8672C135.495 44.8672 135.186 44.9544 134.959 45.1289C134.735 45.3008 134.58 45.4922 134.494 45.7031L133.396 45.4531C133.527 45.0885 133.717 44.7943 133.967 44.5703C134.219 44.3437 134.51 44.1797 134.838 44.0781C135.166 43.974 135.511 43.9219 135.873 43.9219C136.113 43.9219 136.367 43.9505 136.635 44.0078C136.906 44.0625 137.158 44.1641 137.393 44.3125C137.63 44.4609 137.824 44.6732 137.975 44.9492C138.126 45.2227 138.201 45.5781 138.201 46.0156V50H137.061V49.1797H137.014C136.938 49.3307 136.825 49.4792 136.674 49.625C136.523 49.7708 136.329 49.8919 136.092 49.9883C135.855 50.0846 135.571 50.1328 135.24 50.1328ZM135.494 49.1953C135.817 49.1953 136.093 49.1315 136.322 49.0039C136.554 48.8763 136.73 48.7096 136.85 48.5039C136.972 48.2956 137.033 48.0729 137.033 47.8359V47.0625C136.992 47.1042 136.911 47.1432 136.791 47.1797C136.674 47.2135 136.54 47.2435 136.389 47.2695C136.238 47.293 136.09 47.3151 135.947 47.3359C135.804 47.3542 135.684 47.3698 135.588 47.3828C135.361 47.4115 135.154 47.4596 134.967 47.5273C134.782 47.5951 134.633 47.6927 134.521 47.8203C134.412 47.9453 134.357 48.112 134.357 48.3203C134.357 48.6094 134.464 48.8281 134.678 48.9766C134.891 49.1224 135.163 49.1953 135.494 49.1953ZM142.558 44V44.9375H139.28V44H142.558ZM140.159 42.5625H141.327V48.2383C141.327 48.4648 141.361 48.6354 141.429 48.75C141.496 48.862 141.584 48.9388 141.69 48.9805C141.8 49.0195 141.918 49.0391 142.046 49.0391C142.14 49.0391 142.222 49.0326 142.292 49.0195C142.362 49.0065 142.417 48.9961 142.456 48.9883L142.667 49.9531C142.599 49.9792 142.503 50.0052 142.378 50.0313C142.253 50.0599 142.097 50.0755 141.909 50.0781C141.602 50.0833 141.315 50.0286 141.05 49.9141C140.784 49.7995 140.569 49.6224 140.405 49.3828C140.241 49.1432 140.159 48.8424 140.159 48.4805V42.5625ZM146.46 43.0391V42H152.651V43.0391H150.155V50H148.952V43.0391H146.46ZM155.642 50.1211C155.05 50.1211 154.541 49.9948 154.114 49.7422C153.69 49.487 153.362 49.1289 153.13 48.668C152.901 48.2044 152.786 47.6615 152.786 47.0391C152.786 46.4245 152.901 45.8828 153.13 45.4141C153.362 44.9453 153.685 44.5794 154.099 44.3164C154.515 44.0534 155.002 43.9219 155.56 43.9219C155.898 43.9219 156.226 43.9779 156.544 44.0898C156.862 44.2018 157.147 44.3776 157.399 44.6172C157.652 44.8568 157.851 45.168 157.997 45.5508C158.143 45.931 158.216 46.3932 158.216 46.9375V47.3516H153.446V46.4766H157.071C157.071 46.1693 157.009 45.8971 156.884 45.6602C156.759 45.4206 156.583 45.2318 156.356 45.0937C156.132 44.9557 155.869 44.8867 155.567 44.8867C155.239 44.8867 154.953 44.9674 154.708 45.1289C154.466 45.2878 154.278 45.4961 154.146 45.7539C154.015 46.0091 153.95 46.2865 153.95 46.5859V47.2695C153.95 47.6706 154.021 48.0117 154.161 48.293C154.304 48.5742 154.504 48.7891 154.759 48.9375C155.014 49.0833 155.312 49.1562 155.653 49.1562C155.875 49.1562 156.076 49.125 156.259 49.0625C156.441 48.9974 156.599 48.901 156.731 48.7734C156.864 48.6458 156.966 48.4883 157.036 48.3008L158.142 48.5C158.053 48.8255 157.894 49.1107 157.665 49.3555C157.438 49.5977 157.153 49.7865 156.81 49.9219C156.468 50.0547 156.079 50.1211 155.642 50.1211ZM159.512 50V44H160.641V44.9531H160.703C160.813 44.6302 161.005 44.3763 161.281 44.1914C161.56 44.0039 161.875 43.9102 162.227 43.9102C162.299 43.9102 162.385 43.9128 162.484 43.918C162.586 43.9232 162.665 43.9297 162.723 43.9375V45.0547C162.676 45.0417 162.592 45.0273 162.473 45.0117C162.353 44.9935 162.233 44.9844 162.113 44.9844C161.837 44.9844 161.591 45.043 161.375 45.1602C161.161 45.2747 160.992 45.4349 160.867 45.6406C160.742 45.8437 160.68 46.0755 160.68 46.3359V50H159.512ZM163.827 50V42H164.995V44.9727H165.065C165.133 44.8477 165.231 44.7031 165.358 44.5391C165.486 44.375 165.663 44.2318 165.89 44.1094C166.116 43.9844 166.416 43.9219 166.788 43.9219C167.272 43.9219 167.705 44.0443 168.085 44.2891C168.465 44.5339 168.763 44.8867 168.979 45.3477C169.198 45.8086 169.308 46.3633 169.308 47.0117C169.308 47.6602 169.2 48.2161 168.983 48.6797C168.767 49.1406 168.47 49.4961 168.093 49.7461C167.715 49.9935 167.284 50.1172 166.8 50.1172C166.435 50.1172 166.137 50.056 165.905 49.9336C165.676 49.8112 165.496 49.668 165.366 49.5039C165.236 49.3398 165.136 49.194 165.065 49.0664H164.968V50H163.827ZM164.972 47C164.972 47.4219 165.033 47.7917 165.155 48.1094C165.278 48.4271 165.455 48.6758 165.687 48.8555C165.918 49.0326 166.202 49.1211 166.538 49.1211C166.887 49.1211 167.179 49.0286 167.413 48.8437C167.647 48.6562 167.825 48.4023 167.944 48.082C168.067 47.7617 168.128 47.401 168.128 47C168.128 46.6042 168.068 46.2487 167.948 45.9336C167.831 45.6185 167.654 45.3698 167.417 45.1875C167.183 45.0052 166.89 44.9141 166.538 44.9141C166.2 44.9141 165.913 45.0013 165.679 45.1758C165.447 45.3503 165.271 45.5937 165.151 45.9062C165.032 46.2187 164.972 46.5833 164.972 47ZM172.365 50.1328C171.985 50.1328 171.641 50.0625 171.334 49.9219C171.027 49.7786 170.783 49.5716 170.604 49.3008C170.426 49.0299 170.338 48.6979 170.338 48.3047C170.338 47.9661 170.403 47.6875 170.533 47.4687C170.663 47.25 170.839 47.0768 171.061 46.9492C171.282 46.8216 171.529 46.7253 171.803 46.6602C172.076 46.5951 172.355 46.5456 172.639 46.5117C172.998 46.4701 173.29 46.4362 173.514 46.4102C173.738 46.3815 173.9 46.3359 174.002 46.2734C174.104 46.2109 174.154 46.1094 174.154 45.9687V45.9414C174.154 45.6003 174.058 45.3359 173.865 45.1484C173.675 44.9609 173.391 44.8672 173.014 44.8672C172.62 44.8672 172.311 44.9544 172.084 45.1289C171.86 45.3008 171.705 45.4922 171.619 45.7031L170.521 45.4531C170.652 45.0885 170.842 44.7943 171.092 44.5703C171.344 44.3437 171.635 44.1797 171.963 44.0781C172.291 43.974 172.636 43.9219 172.998 43.9219C173.238 43.9219 173.492 43.9505 173.76 44.0078C174.031 44.0625 174.283 44.1641 174.518 44.3125C174.755 44.4609 174.949 44.6732 175.1 44.9492C175.251 45.2227 175.326 45.5781 175.326 46.0156V50H174.186V49.1797H174.139C174.063 49.3307 173.95 49.4792 173.799 49.625C173.648 49.7708 173.454 49.8919 173.217 49.9883C172.98 50.0846 172.696 50.1328 172.365 50.1328ZM172.619 49.1953C172.942 49.1953 173.218 49.1315 173.447 49.0039C173.679 48.8763 173.855 48.7096 173.975 48.5039C174.097 48.2956 174.158 48.0729 174.158 47.8359V47.0625C174.117 47.1042 174.036 47.1432 173.916 47.1797C173.799 47.2135 173.665 47.2435 173.514 47.2695C173.363 47.293 173.215 47.3151 173.072 47.3359C172.929 47.3542 172.809 47.3698 172.713 47.3828C172.486 47.4115 172.279 47.4596 172.092 47.5273C171.907 47.5951 171.758 47.6927 171.646 47.8203C171.537 47.9453 171.482 48.112 171.482 48.3203C171.482 48.6094 171.589 48.8281 171.803 48.9766C172.016 49.1224 172.288 49.1953 172.619 49.1953ZM176.882 50V44H178.05V50H176.882ZM177.472 43.0742C177.269 43.0742 177.094 43.0065 176.948 42.8711C176.805 42.7331 176.733 42.569 176.733 42.3789C176.733 42.1862 176.805 42.0221 176.948 41.8867C177.094 41.7487 177.269 41.6797 177.472 41.6797C177.675 41.6797 177.848 41.7487 177.991 41.8867C178.137 42.0221 178.21 42.1862 178.21 42.3789C178.21 42.569 178.137 42.7331 177.991 42.8711C177.848 43.0065 177.675 43.0742 177.472 43.0742ZM180.695 47.9648L180.688 46.5391H180.891L183.281 44H184.68L181.953 46.8906H181.77L180.695 47.9648ZM179.621 50V42H180.789V50H179.621ZM183.41 50L181.262 47.1484L182.066 46.332L184.844 50H183.41Z" fill="white"/>
</svg>
