<svg width="223" height="57" viewBox="0 0 223 57" fill="none" xmlns="http://www.w3.org/2000/svg">
<circle cx="85" cy="13" r="13" fill="#FF4900"/>
<path d="M19.616 19.96C19.616 21.3253 19.296 22.5733 18.656 23.704C18.0373 24.8133 17.088 25.7093 15.808 26.392C14.5493 27.0533 13.0027 27.384 11.168 27.384H8.064V35H1.792V12.44H11.168C12.9813 12.44 14.5173 12.76 15.776 13.4C17.056 14.04 18.016 14.9253 18.656 16.056C19.296 17.1867 19.616 18.488 19.616 19.96ZM10.56 22.392C12.3307 22.392 13.216 21.5813 13.216 19.96C13.216 18.3173 12.3307 17.496 10.56 17.496H8.064V22.392H10.56ZM21.1118 26.008C21.1118 24.152 21.4424 22.5307 22.1038 21.144C22.7864 19.7573 23.7038 18.6907 24.8558 17.944C26.0291 17.1973 27.3304 16.824 28.7598 16.824C29.9971 16.824 31.0638 17.0693 31.9598 17.56C32.8558 18.0507 33.5491 18.712 34.0398 19.544V17.048H40.3118V35H34.0398V32.504C33.5491 33.336 32.8451 33.9973 31.9278 34.488C31.0318 34.9787 29.9758 35.224 28.7598 35.224C27.3304 35.224 26.0291 34.8507 24.8558 34.104C23.7038 33.3573 22.7864 32.2907 22.1038 30.904C21.4424 29.496 21.1118 27.864 21.1118 26.008ZM34.0398 26.008C34.0398 24.856 33.7198 23.9493 33.0798 23.288C32.4611 22.6267 31.6931 22.296 30.7758 22.296C29.8371 22.296 29.0584 22.6267 28.4398 23.288C27.8211 23.928 27.5118 24.8347 27.5118 26.008C27.5118 27.16 27.8211 28.0773 28.4398 28.76C29.0584 29.4213 29.8371 29.752 30.7758 29.752C31.6931 29.752 32.4611 29.4213 33.0798 28.76C33.7198 28.0987 34.0398 27.1813 34.0398 26.008ZM55.6298 16.888C57.6991 16.888 59.3418 17.5813 60.5578 18.968C61.7738 20.3333 62.3818 22.1893 62.3818 24.536V35H56.1098V25.368C56.1098 24.344 55.8431 23.544 55.3098 22.968C54.7764 22.3707 54.0618 22.072 53.1658 22.072C52.2271 22.072 51.4911 22.3707 50.9578 22.968C50.4244 23.544 50.1578 24.344 50.1578 25.368V35H43.8858V17.048H50.1578V19.608C50.7124 18.7973 51.4591 18.1467 52.3978 17.656C53.3364 17.144 54.4138 16.888 55.6298 16.888ZM64.7993 26.008C64.7993 24.152 65.1299 22.5307 65.7913 21.144C66.4739 19.7573 67.4019 18.6907 68.5753 17.944C69.7486 17.1973 71.0499 16.824 72.4792 16.824C73.6313 16.824 74.6553 17.0693 75.5513 17.56C76.4686 18.0293 77.1833 18.68 77.6953 19.512V11.32H83.9993V35H77.6953V32.504C77.2046 33.336 76.5113 33.9973 75.6153 34.488C74.7193 34.9787 73.6633 35.224 72.4473 35.224C71.0179 35.224 69.7166 34.8507 68.5433 34.104C67.3913 33.3573 66.4739 32.2907 65.7913 30.904C65.1299 29.496 64.7993 27.864 64.7993 26.008ZM77.7273 26.008C77.7273 24.856 77.4073 23.9493 76.7673 23.288C76.1486 22.6267 75.3806 22.296 74.4633 22.296C73.5246 22.296 72.7459 22.6267 72.1273 23.288C71.5086 23.928 71.1993 24.8347 71.1993 26.008C71.1993 27.16 71.5086 28.0773 72.1273 28.76C72.7459 29.4213 73.5246 29.752 74.4633 29.752C75.3806 29.752 76.1486 29.4213 76.7673 28.76C77.4073 28.0987 77.7273 27.1813 77.7273 26.008ZM86.5493 26.008C86.5493 24.152 86.8799 22.5307 87.5413 21.144C88.2239 19.7573 89.1413 18.6907 90.2933 17.944C91.4666 17.1973 92.7679 16.824 94.1973 16.824C95.4346 16.824 96.5013 17.0693 97.3973 17.56C98.2933 18.0507 98.9866 18.712 99.4773 19.544V17.048H105.749V35H99.4773V32.504C98.9866 33.336 98.2826 33.9973 97.3653 34.488C96.4693 34.9787 95.4133 35.224 94.1973 35.224C92.7679 35.224 91.4666 34.8507 90.2933 34.104C89.1413 33.3573 88.2239 32.2907 87.5413 30.904C86.8799 29.496 86.5493 27.864 86.5493 26.008ZM99.4773 26.008C99.4773 24.856 99.1573 23.9493 98.5173 23.288C97.8986 22.6267 97.1306 22.296 96.2133 22.296C95.2746 22.296 94.4959 22.6267 93.8773 23.288C93.2586 23.928 92.9493 24.8347 92.9493 26.008C92.9493 27.16 93.2586 28.0773 93.8773 28.76C94.4959 29.4213 95.2746 29.752 96.2133 29.752C97.1306 29.752 97.8986 29.4213 98.5173 28.76C99.1573 28.0987 99.4773 27.1813 99.4773 26.008ZM135.851 17.048L131.275 35H124.235L121.739 24.12L119.147 35H112.139L107.595 17.048H113.835L115.851 28.952L118.507 17.048H125.227L127.979 28.984L129.963 17.048H135.851ZM136.612 26.008C136.612 24.152 136.942 22.5307 137.604 21.144C138.286 19.7573 139.204 18.6907 140.356 17.944C141.529 17.1973 142.83 16.824 144.26 16.824C145.497 16.824 146.564 17.0693 147.46 17.56C148.356 18.0507 149.049 18.712 149.54 19.544V17.048H155.812V35H149.54V32.504C149.049 33.336 148.345 33.9973 147.428 34.488C146.532 34.9787 145.476 35.224 144.26 35.224C142.83 35.224 141.529 34.8507 140.356 34.104C139.204 33.3573 138.286 32.2907 137.604 30.904C136.942 29.496 136.612 27.864 136.612 26.008ZM149.54 26.008C149.54 24.856 149.22 23.9493 148.58 23.288C147.961 22.6267 147.193 22.296 146.276 22.296C145.337 22.296 144.558 22.6267 143.94 23.288C143.321 23.928 143.012 24.8347 143.012 26.008C143.012 27.16 143.321 28.0773 143.94 28.76C144.558 29.4213 145.337 29.752 146.276 29.752C147.193 29.752 147.961 29.4213 148.58 28.76C149.22 28.0987 149.54 27.1813 149.54 26.008Z" fill="#242424"/>
<path d="M176.378 12.44V17.432H170.362V35H164.09V17.432H158.138V12.44H176.378ZM184.97 20.216C185.674 19.192 186.528 18.3813 187.53 17.784C188.533 17.1867 189.61 16.888 190.762 16.888V23.576H189.002C187.637 23.576 186.624 23.8427 185.962 24.376C185.301 24.9093 184.97 25.8373 184.97 27.16V35H178.698V17.048H184.97V20.216ZM196.179 15.384C195.069 15.384 194.173 15.0853 193.491 14.488C192.829 13.8693 192.499 13.1013 192.499 12.184C192.499 11.2453 192.829 10.4667 193.491 9.848C194.173 9.22933 195.069 8.92 196.179 8.92C197.267 8.92 198.141 9.22933 198.803 9.848C199.485 10.4667 199.827 11.2453 199.827 12.184C199.827 13.1013 199.485 13.8693 198.803 14.488C198.141 15.0853 197.267 15.384 196.179 15.384ZM199.283 17.048V35H193.011V17.048H199.283ZM209.127 19.544C209.617 18.712 210.311 18.0507 211.207 17.56C212.103 17.0693 213.159 16.824 214.375 16.824C215.804 16.824 217.095 17.1973 218.247 17.944C219.42 18.6907 220.337 19.7573 220.999 21.144C221.681 22.5307 222.023 24.152 222.023 26.008C222.023 27.864 221.681 29.496 220.999 30.904C220.337 32.2907 219.42 33.3573 218.247 34.104C217.095 34.8507 215.804 35.224 214.375 35.224C213.159 35.224 212.103 34.9787 211.207 34.488C210.332 33.9973 209.639 33.336 209.127 32.504V43.576H202.855V17.048H209.127V19.544ZM215.655 26.008C215.655 24.8347 215.335 23.928 214.695 23.288C214.076 22.6267 213.308 22.296 212.391 22.296C211.473 22.296 210.695 22.6267 210.055 23.288C209.436 23.9493 209.127 24.856 209.127 26.008C209.127 27.1813 209.436 28.0987 210.055 28.76C210.695 29.4213 211.473 29.752 212.391 29.752C213.308 29.752 214.076 29.4213 214.695 28.76C215.335 28.0773 215.655 27.16 215.655 26.008Z" fill="#FF4900"/>
<path d="M28.917 48.073C29.3277 48.1463 29.676 48.3627 29.962 48.722C30.248 49.0813 30.391 49.4883 30.391 49.943C30.391 50.3317 30.2883 50.6837 30.083 50.999C29.885 51.307 29.5953 51.5527 29.214 51.736C28.8327 51.912 28.389 52 27.883 52H24.825V44.355H27.74C28.2607 44.355 28.708 44.443 29.082 44.619C29.456 44.795 29.7383 45.0333 29.929 45.334C30.1197 45.6273 30.215 45.9573 30.215 46.324C30.215 46.764 30.0977 47.1307 29.863 47.424C29.6283 47.7173 29.313 47.9337 28.917 48.073ZM26.079 47.567H27.63C28.0407 47.567 28.3597 47.4753 28.587 47.292C28.8217 47.1013 28.939 46.83 28.939 46.478C28.939 46.1333 28.8217 45.8657 28.587 45.675C28.3597 45.477 28.0407 45.378 27.63 45.378H26.079V47.567ZM27.773 50.977C28.1983 50.977 28.532 50.8743 28.774 50.669C29.016 50.4637 29.137 50.1777 29.137 49.811C29.137 49.437 29.0087 49.14 28.752 48.92C28.4953 48.7 28.1543 48.59 27.729 48.59H26.079V50.977H27.773ZM31.3357 48.942C31.3357 48.3333 31.4604 47.7943 31.7097 47.325C31.9664 46.8557 32.311 46.4927 32.7437 46.236C33.1837 45.972 33.6677 45.84 34.1957 45.84C34.6724 45.84 35.0867 45.9353 35.4387 46.126C35.798 46.3093 36.084 46.5403 36.2967 46.819V45.939H37.5617V52H36.2967V51.098C36.084 51.384 35.7944 51.6223 35.4277 51.813C35.061 52.0037 34.643 52.099 34.1737 52.099C33.653 52.099 33.1764 51.967 32.7437 51.703C32.311 51.4317 31.9664 51.0577 31.7097 50.581C31.4604 50.097 31.3357 49.5507 31.3357 48.942ZM36.2967 48.964C36.2967 48.546 36.2087 48.183 36.0327 47.875C35.864 47.567 35.6404 47.3323 35.3617 47.171C35.083 47.0097 34.7824 46.929 34.4597 46.929C34.137 46.929 33.8364 47.0097 33.5577 47.171C33.279 47.325 33.0517 47.556 32.8757 47.864C32.707 48.1647 32.6227 48.524 32.6227 48.942C32.6227 49.36 32.707 49.7267 32.8757 50.042C33.0517 50.3573 33.279 50.5993 33.5577 50.768C33.8437 50.9293 34.1444 51.01 34.4597 51.01C34.7824 51.01 35.083 50.9293 35.3617 50.768C35.6404 50.6067 35.864 50.372 36.0327 50.064C36.2087 49.7487 36.2967 49.382 36.2967 48.964ZM40.4628 43.86V52H39.2088V43.86H40.4628ZM42.7472 45.136C42.5198 45.136 42.3292 45.059 42.1752 44.905C42.0212 44.751 41.9442 44.5603 41.9442 44.333C41.9442 44.1057 42.0212 43.915 42.1752 43.761C42.3292 43.607 42.5198 43.53 42.7472 43.53C42.9672 43.53 43.1542 43.607 43.3082 43.761C43.4622 43.915 43.5392 44.1057 43.5392 44.333C43.5392 44.5603 43.4622 44.751 43.3082 44.905C43.1542 45.059 42.9672 45.136 42.7472 45.136ZM43.3632 45.939V52H42.1092V45.939H43.3632ZM50.386 52.077C49.8727 52.077 49.4107 51.989 49 51.813C48.5893 51.6297 48.2667 51.373 48.032 51.043C47.7973 50.713 47.68 50.328 47.68 49.888H49.022C49.0513 50.218 49.1797 50.4893 49.407 50.702C49.6417 50.9147 49.968 51.021 50.386 51.021C50.8187 51.021 51.156 50.9183 51.398 50.713C51.64 50.5003 51.761 50.229 51.761 49.899C51.761 49.6423 51.684 49.4333 51.53 49.272C51.3833 49.1107 51.1963 48.986 50.969 48.898C50.749 48.81 50.441 48.7147 50.045 48.612C49.5463 48.48 49.1393 48.348 48.824 48.216C48.516 48.0767 48.252 47.864 48.032 47.578C47.812 47.292 47.702 46.9107 47.702 46.434C47.702 45.994 47.812 45.609 48.032 45.279C48.252 44.949 48.56 44.696 48.956 44.52C49.352 44.344 49.8103 44.256 50.331 44.256C51.0717 44.256 51.6767 44.443 52.146 44.817C52.6227 45.1837 52.8867 45.6897 52.938 46.335H51.552C51.53 46.0563 51.398 45.818 51.156 45.62C50.914 45.422 50.595 45.323 50.199 45.323C49.8397 45.323 49.5463 45.4147 49.319 45.598C49.0917 45.7813 48.978 46.0453 48.978 46.39C48.978 46.6247 49.0477 46.819 49.187 46.973C49.3337 47.1197 49.517 47.237 49.737 47.325C49.957 47.413 50.2577 47.5083 50.639 47.611C51.145 47.7503 51.5557 47.8897 51.871 48.029C52.1937 48.1683 52.465 48.3847 52.685 48.678C52.9123 48.964 53.026 49.349 53.026 49.833C53.026 50.2217 52.9197 50.5883 52.707 50.933C52.5017 51.2777 52.1973 51.5563 51.794 51.769C51.398 51.9743 50.9287 52.077 50.386 52.077ZM60.0607 48.821C60.0607 49.0483 60.046 49.2537 60.0167 49.437H55.3857C55.4223 49.921 55.602 50.3097 55.9247 50.603C56.2473 50.8963 56.6433 51.043 57.1127 51.043C57.7873 51.043 58.264 50.7607 58.5427 50.196H59.8957C59.7123 50.7533 59.3787 51.2117 58.8947 51.571C58.418 51.923 57.824 52.099 57.1127 52.099C56.5333 52.099 56.0127 51.9707 55.5507 51.714C55.096 51.45 54.7367 51.0833 54.4727 50.614C54.216 50.1373 54.0877 49.5873 54.0877 48.964C54.0877 48.3407 54.2123 47.7943 54.4617 47.325C54.7183 46.8483 55.074 46.4817 55.5287 46.225C55.9907 45.9683 56.5187 45.84 57.1127 45.84C57.6847 45.84 58.1943 45.9647 58.6417 46.214C59.089 46.4633 59.4373 46.8153 59.6867 47.27C59.936 47.7173 60.0607 48.2343 60.0607 48.821ZM58.7517 48.425C58.7443 47.963 58.5793 47.5927 58.2567 47.314C57.934 47.0353 57.5343 46.896 57.0577 46.896C56.625 46.896 56.2547 47.0353 55.9467 47.314C55.6387 47.5853 55.4553 47.9557 55.3967 48.425H58.7517ZM62.5487 43.86V52H61.2947V43.86H62.5487ZM63.7771 48.942C63.7771 48.3333 63.9018 47.7943 64.1511 47.325C64.4078 46.8557 64.7525 46.4927 65.1851 46.236C65.6251 45.972 66.1091 45.84 66.6371 45.84C67.1138 45.84 67.5281 45.9353 67.8801 46.126C68.2395 46.3093 68.5255 46.5403 68.7381 46.819V45.939H70.0031V52H68.7381V51.098C68.5255 51.384 68.2358 51.6223 67.8691 51.813C67.5025 52.0037 67.0845 52.099 66.6151 52.099C66.0945 52.099 65.6178 51.967 65.1851 51.703C64.7525 51.4317 64.4078 51.0577 64.1511 50.581C63.9018 50.097 63.7771 49.5507 63.7771 48.942ZM68.7381 48.964C68.7381 48.546 68.6501 48.183 68.4741 47.875C68.3055 47.567 68.0818 47.3323 67.8031 47.171C67.5245 47.0097 67.2238 46.929 66.9011 46.929C66.5785 46.929 66.2778 47.0097 65.9991 47.171C65.7205 47.325 65.4931 47.556 65.3171 47.864C65.1485 48.1647 65.0641 48.524 65.0641 48.942C65.0641 49.36 65.1485 49.7267 65.3171 50.042C65.4931 50.3573 65.7205 50.5993 65.9991 50.768C66.2851 50.9293 66.5858 51.01 66.9011 51.01C67.2238 51.01 67.5245 50.9293 67.8031 50.768C68.0818 50.6067 68.3055 50.372 68.4741 50.064C68.6501 49.7487 68.7381 49.382 68.7381 48.964ZM72.9042 43.86V52H71.6502V43.86H72.9042ZM80.0396 45.939V52H78.7856V51.285C78.5876 51.5343 78.3273 51.7323 78.0046 51.879C77.6893 52.0183 77.3519 52.088 76.9926 52.088C76.5159 52.088 76.0869 51.989 75.7056 51.791C75.3316 51.593 75.0346 51.2997 74.8146 50.911C74.6019 50.5223 74.4956 50.053 74.4956 49.503V45.939H75.7386V49.316C75.7386 49.8587 75.8743 50.2767 76.1456 50.57C76.4169 50.856 76.7873 50.999 77.2566 50.999C77.7259 50.999 78.0963 50.856 78.3676 50.57C78.6463 50.2767 78.7856 49.8587 78.7856 49.316V45.939H80.0396ZM88.7206 44.355V49.866C88.7206 50.548 88.5116 51.087 88.0936 51.483C87.6829 51.879 87.1402 52.077 86.4656 52.077C85.7909 52.077 85.2446 51.879 84.8266 51.483C84.4159 51.087 84.2106 50.548 84.2106 49.866H85.4756C85.4829 50.2033 85.5672 50.471 85.7286 50.669C85.8972 50.867 86.1429 50.966 86.4656 50.966C86.7882 50.966 87.0339 50.867 87.2026 50.669C87.3712 50.4637 87.4556 50.196 87.4556 49.866V44.355H88.7206ZM90.3425 48.942C90.3425 48.3333 90.4672 47.7943 90.7165 47.325C90.9732 46.8557 91.3179 46.4927 91.7505 46.236C92.1905 45.972 92.6745 45.84 93.2025 45.84C93.6792 45.84 94.0935 45.9353 94.4455 46.126C94.8049 46.3093 95.0909 46.5403 95.3035 46.819V45.939H96.5685V52H95.3035V51.098C95.0909 51.384 94.8012 51.6223 94.4345 51.813C94.0679 52.0037 93.6499 52.099 93.1805 52.099C92.6599 52.099 92.1832 51.967 91.7505 51.703C91.3179 51.4317 90.9732 51.0577 90.7165 50.581C90.4672 50.097 90.3425 49.5507 90.3425 48.942ZM95.3035 48.964C95.3035 48.546 95.2155 48.183 95.0395 47.875C94.8709 47.567 94.6472 47.3323 94.3685 47.171C94.0899 47.0097 93.7892 46.929 93.4665 46.929C93.1439 46.929 92.8432 47.0097 92.5645 47.171C92.2859 47.325 92.0585 47.556 91.8825 47.864C91.7139 48.1647 91.6295 48.524 91.6295 48.942C91.6295 49.36 91.7139 49.7267 91.8825 50.042C92.0585 50.3573 92.2859 50.5993 92.5645 50.768C92.8505 50.9293 93.1512 51.01 93.4665 51.01C93.7892 51.01 94.0899 50.9293 94.3685 50.768C94.6472 50.6067 94.8709 50.372 95.0395 50.064C95.2155 49.7487 95.3035 49.382 95.3035 48.964ZM97.7976 48.942C97.7976 48.3333 97.9223 47.7943 98.1716 47.325C98.4283 46.8557 98.773 46.4927 99.2056 46.236C99.6456 45.972 100.133 45.84 100.669 45.84C101.065 45.84 101.453 45.928 101.835 46.104C102.223 46.2727 102.531 46.5 102.759 46.786V43.86H104.024V52H102.759V51.087C102.553 51.3803 102.267 51.6223 101.901 51.813C101.541 52.0037 101.127 52.099 100.658 52.099C100.13 52.099 99.6456 51.967 99.2056 51.703C98.773 51.4317 98.4283 51.0577 98.1716 50.581C97.9223 50.097 97.7976 49.5507 97.7976 48.942ZM102.759 48.964C102.759 48.546 102.671 48.183 102.495 47.875C102.326 47.567 102.102 47.3323 101.824 47.171C101.545 47.0097 101.244 46.929 100.922 46.929C100.599 46.929 100.298 47.0097 100.02 47.171C99.741 47.325 99.5136 47.556 99.3376 47.864C99.169 48.1647 99.0846 48.524 99.0846 48.942C99.0846 49.36 99.169 49.7267 99.3376 50.042C99.5136 50.3573 99.741 50.5993 100.02 50.768C100.306 50.9293 100.606 51.01 100.922 51.01C101.244 51.01 101.545 50.9293 101.824 50.768C102.102 50.6067 102.326 50.372 102.495 50.064C102.671 49.7487 102.759 49.382 102.759 48.964ZM106.309 45.136C106.081 45.136 105.891 45.059 105.737 44.905C105.583 44.751 105.506 44.5603 105.506 44.333C105.506 44.1057 105.583 43.915 105.737 43.761C105.891 43.607 106.081 43.53 106.309 43.53C106.529 43.53 106.716 43.607 106.87 43.761C107.024 43.915 107.101 44.1057 107.101 44.333C107.101 44.5603 107.024 44.751 106.87 44.905C106.716 45.059 106.529 45.136 106.309 45.136ZM106.925 45.939V52H105.671V45.939H106.925ZM116.368 44.355V45.378H114.333V52H113.079V45.378H111.033V44.355H116.368ZM123.193 48.821C123.193 49.0483 123.178 49.2537 123.149 49.437H118.518C118.554 49.921 118.734 50.3097 119.057 50.603C119.379 50.8963 119.775 51.043 120.245 51.043C120.919 51.043 121.396 50.7607 121.675 50.196H123.027C122.844 50.7533 122.511 51.2117 122.027 51.571C121.55 51.923 120.956 52.099 120.245 52.099C119.665 52.099 119.145 51.9707 118.683 51.714C118.228 51.45 117.869 51.0833 117.605 50.614C117.348 50.1373 117.22 49.5873 117.22 48.964C117.22 48.3407 117.344 47.7943 117.594 47.325C117.85 46.8483 118.206 46.4817 118.661 46.225C119.123 45.9683 119.651 45.84 120.245 45.84C120.817 45.84 121.326 45.9647 121.774 46.214C122.221 46.4633 122.569 46.8153 122.819 47.27C123.068 47.7173 123.193 48.2343 123.193 48.821ZM121.884 48.425C121.876 47.963 121.711 47.5927 121.389 47.314C121.066 47.0353 120.666 46.896 120.19 46.896C119.757 46.896 119.387 47.0353 119.079 47.314C118.771 47.5853 118.587 47.9557 118.529 48.425H121.884ZM131.764 45.84C132.24 45.84 132.666 45.939 133.04 46.137C133.421 46.335 133.718 46.6283 133.931 47.017C134.151 47.4057 134.261 47.875 134.261 48.425V52H133.018V48.612C133.018 48.0693 132.882 47.655 132.611 47.369C132.339 47.0757 131.969 46.929 131.5 46.929C131.03 46.929 130.656 47.0757 130.378 47.369C130.106 47.655 129.971 48.0693 129.971 48.612V52H128.728V48.612C128.728 48.0693 128.592 47.655 128.321 47.369C128.049 47.0757 127.679 46.929 127.21 46.929C126.74 46.929 126.366 47.0757 126.088 47.369C125.816 47.655 125.681 48.0693 125.681 48.612V52H124.427V45.939H125.681V46.632C125.886 46.3827 126.146 46.1883 126.462 46.049C126.777 45.9097 127.114 45.84 127.474 45.84C127.958 45.84 128.39 45.9427 128.772 46.148C129.153 46.3533 129.446 46.6503 129.652 47.039C129.835 46.6723 130.121 46.3827 130.51 46.17C130.898 45.95 131.316 45.84 131.764 45.84ZM137.11 46.83C137.323 46.5513 137.613 46.3167 137.979 46.126C138.346 45.9353 138.76 45.84 139.222 45.84C139.75 45.84 140.231 45.972 140.663 46.236C141.103 46.4927 141.448 46.8557 141.697 47.325C141.947 47.7943 142.071 48.3333 142.071 48.942C142.071 49.5507 141.947 50.097 141.697 50.581C141.448 51.0577 141.103 51.4317 140.663 51.703C140.231 51.967 139.75 52.099 139.222 52.099C138.76 52.099 138.35 52.0073 137.99 51.824C137.631 51.6333 137.338 51.3987 137.11 51.12V54.882H135.856V45.939H137.11V46.83ZM140.795 48.942C140.795 48.524 140.707 48.1647 140.531 47.864C140.363 47.556 140.135 47.325 139.849 47.171C139.571 47.0097 139.27 46.929 138.947 46.929C138.632 46.929 138.331 47.0097 138.045 47.171C137.767 47.3323 137.539 47.567 137.363 47.875C137.195 48.183 137.11 48.546 137.11 48.964C137.11 49.382 137.195 49.7487 137.363 50.064C137.539 50.372 137.767 50.6067 138.045 50.768C138.331 50.9293 138.632 51.01 138.947 51.01C139.27 51.01 139.571 50.9293 139.849 50.768C140.135 50.5993 140.363 50.3573 140.531 50.042C140.707 49.7267 140.795 49.36 140.795 48.942ZM142.893 48.942C142.893 48.3333 143.018 47.7943 143.267 47.325C143.524 46.8557 143.869 46.4927 144.301 46.236C144.741 45.972 145.225 45.84 145.753 45.84C146.23 45.84 146.644 45.9353 146.996 46.126C147.356 46.3093 147.642 46.5403 147.854 46.819V45.939H149.119V52H147.854V51.098C147.642 51.384 147.352 51.6223 146.985 51.813C146.619 52.0037 146.201 52.099 145.731 52.099C145.211 52.099 144.734 51.967 144.301 51.703C143.869 51.4317 143.524 51.0577 143.267 50.581C143.018 50.097 142.893 49.5507 142.893 48.942ZM147.854 48.964C147.854 48.546 147.766 48.183 147.59 47.875C147.422 47.567 147.198 47.3323 146.919 47.171C146.641 47.0097 146.34 46.929 146.017 46.929C145.695 46.929 145.394 47.0097 145.115 47.171C144.837 47.325 144.609 47.556 144.433 47.864C144.265 48.1647 144.18 48.524 144.18 48.942C144.18 49.36 144.265 49.7267 144.433 50.042C144.609 50.3573 144.837 50.5993 145.115 50.768C145.401 50.9293 145.702 51.01 146.017 51.01C146.34 51.01 146.641 50.9293 146.919 50.768C147.198 50.6067 147.422 50.372 147.59 50.064C147.766 49.7487 147.854 49.382 147.854 48.964ZM152.229 46.962V50.317C152.229 50.5443 152.281 50.7093 152.383 50.812C152.493 50.9073 152.677 50.955 152.933 50.955H153.703V52H152.713C152.149 52 151.716 51.868 151.415 51.604C151.115 51.34 150.964 50.911 150.964 50.317V46.962H150.249V45.939H150.964V44.432H152.229V45.939H153.703V46.962H152.229ZM162.656 44.355V45.378H160.621V52H159.367V45.378H157.321V44.355H162.656ZM169.481 48.821C169.481 49.0483 169.466 49.2537 169.437 49.437H164.806C164.842 49.921 165.022 50.3097 165.345 50.603C165.667 50.8963 166.063 51.043 166.533 51.043C167.207 51.043 167.684 50.7607 167.963 50.196H169.316C169.132 50.7533 168.799 51.2117 168.315 51.571C167.838 51.923 167.244 52.099 166.533 52.099C165.953 52.099 165.433 51.9707 164.971 51.714C164.516 51.45 164.157 51.0833 163.893 50.614C163.636 50.1373 163.508 49.5873 163.508 48.964C163.508 48.3407 163.632 47.7943 163.882 47.325C164.138 46.8483 164.494 46.4817 164.949 46.225C165.411 45.9683 165.939 45.84 166.533 45.84C167.105 45.84 167.614 45.9647 168.062 46.214C168.509 46.4633 168.857 46.8153 169.107 47.27C169.356 47.7173 169.481 48.2343 169.481 48.821ZM168.172 48.425C168.164 47.963 167.999 47.5927 167.677 47.314C167.354 47.0353 166.954 46.896 166.478 46.896C166.045 46.896 165.675 47.0353 165.367 47.314C165.059 47.5853 164.875 47.9557 164.817 48.425H168.172ZM171.969 46.819C172.152 46.511 172.394 46.2727 172.695 46.104C173.003 45.928 173.366 45.84 173.784 45.84V47.138H173.465C172.973 47.138 172.599 47.2627 172.343 47.512C172.093 47.7613 171.969 48.194 171.969 48.81V52H170.715V45.939H171.969V46.819ZM176.19 46.841C176.403 46.5477 176.693 46.3093 177.059 46.126C177.433 45.9353 177.848 45.84 178.302 45.84C178.838 45.84 179.322 45.9683 179.754 46.225C180.187 46.4817 180.528 46.8483 180.777 47.325C181.027 47.7943 181.151 48.3333 181.151 48.942C181.151 49.5507 181.027 50.097 180.777 50.581C180.528 51.0577 180.183 51.4317 179.743 51.703C179.311 51.967 178.83 52.099 178.302 52.099C177.833 52.099 177.415 52.0073 177.048 51.824C176.689 51.6407 176.403 51.406 176.19 51.12V52H174.936V43.86H176.19V46.841ZM179.875 48.942C179.875 48.524 179.787 48.1647 179.611 47.864C179.443 47.556 179.215 47.325 178.929 47.171C178.651 47.0097 178.35 46.929 178.027 46.929C177.712 46.929 177.411 47.0097 177.125 47.171C176.847 47.3323 176.619 47.567 176.443 47.875C176.275 48.183 176.19 48.546 176.19 48.964C176.19 49.382 176.275 49.7487 176.443 50.064C176.619 50.372 176.847 50.6067 177.125 50.768C177.411 50.9293 177.712 51.01 178.027 51.01C178.35 51.01 178.651 50.9293 178.929 50.768C179.215 50.5993 179.443 50.3573 179.611 50.042C179.787 49.7267 179.875 49.36 179.875 48.942ZM181.973 48.942C181.973 48.3333 182.098 47.7943 182.347 47.325C182.604 46.8557 182.949 46.4927 183.381 46.236C183.821 45.972 184.305 45.84 184.833 45.84C185.31 45.84 185.724 45.9353 186.076 46.126C186.436 46.3093 186.722 46.5403 186.934 46.819V45.939H188.199V52H186.934V51.098C186.722 51.384 186.432 51.6223 186.065 51.813C185.699 52.0037 185.281 52.099 184.811 52.099C184.291 52.099 183.814 51.967 183.381 51.703C182.949 51.4317 182.604 51.0577 182.347 50.581C182.098 50.097 181.973 49.5507 181.973 48.942ZM186.934 48.964C186.934 48.546 186.846 48.183 186.67 47.875C186.502 47.567 186.278 47.3323 185.999 47.171C185.721 47.0097 185.42 46.929 185.097 46.929C184.775 46.929 184.474 47.0097 184.195 47.171C183.917 47.325 183.689 47.556 183.513 47.864C183.345 48.1647 183.26 48.524 183.26 48.942C183.26 49.36 183.345 49.7267 183.513 50.042C183.689 50.3573 183.917 50.5993 184.195 50.768C184.481 50.9293 184.782 51.01 185.097 51.01C185.42 51.01 185.721 50.9293 185.999 50.768C186.278 50.6067 186.502 50.372 186.67 50.064C186.846 49.7487 186.934 49.382 186.934 48.964ZM190.484 45.136C190.257 45.136 190.066 45.059 189.912 44.905C189.758 44.751 189.681 44.5603 189.681 44.333C189.681 44.1057 189.758 43.915 189.912 43.761C190.066 43.607 190.257 43.53 190.484 43.53C190.704 43.53 190.891 43.607 191.045 43.761C191.199 43.915 191.276 44.1057 191.276 44.333C191.276 44.5603 191.199 44.751 191.045 44.905C190.891 45.059 190.704 45.136 190.484 45.136ZM191.1 45.939V52H189.846V45.939H191.1ZM195.145 48.975L197.939 52H196.245L194.001 49.393V52H192.747V43.86H194.001V48.59L196.201 45.939H197.939L195.145 48.975Z" fill="#242424"/>
</svg>
